<?xml version="1.0" encoding="UTF-8"?>
<svg id="Layer_1" xmlns="http://www.w3.org/2000/svg" viewBox="0 0 466.66 101.14">
  <defs>
    <style>
      .cls-1 {
        fill: #ffffff;
      }
    </style>
  </defs>
  <path class="cls-1" d="M267.53,36.33l-35.34-25.91-20.18,37.68c-1.93,3.61-.57,8.1,3.03,10.03,1.11.6,2.31.88,3.49.88,2.64,0,5.2-1.42,6.54-3.91l6.49-12.12c.94,3.01,1.44,6.17,1.44,9.37,0,17.24-14.03,31.26-31.26,31.26s-31.26-14.03-31.26-31.26c0-14.27,9.61-26.34,22.7-30.07,2.12,1.68,4.8,2.68,7.72,2.68,6.89,0,12.48-5.59,12.48-12.48s-5.59-12.48-12.48-12.48c-3.96,0-7.49,1.85-9.77,4.73-2.86.63-5.65,1.53-8.37,2.68-5.81,2.46-11.03,5.97-15.5,10.45s-7.99,9.69-10.45,15.5c-2.55,6.02-3.84,12.41-3.84,18.99s1.29,12.97,3.84,18.99c2.46,5.81,5.97,11.03,10.45,15.5,4.48,4.48,9.69,7.99,15.5,10.45,6.02,2.55,12.41,3.84,18.99,3.84s12.97-1.29,18.99-3.84c5.81-2.46,11.03-5.97,15.5-10.45,4.48-4.48,7.99-9.69,10.45-15.5,2.55-6.02,3.84-12.41,3.84-18.99,0-3.74-.43-7.44-1.26-11.03l9.51,6.97c3.3,2.42,7.94,1.71,10.36-1.6,2.42-3.3,1.71-7.94-1.6-10.36Z"/>
  <g>
    <path class="cls-1" d="M0,4.81c6.47-1.1,15.55-1.93,28.35-1.93s22.16,2.48,28.35,7.43c5.92,4.68,9.91,12.39,9.91,21.47s-3.03,16.79-8.53,22.02c-7.16,6.74-17.75,9.77-30.14,9.77-2.75,0-5.23-.14-7.16-.41v33.17H0V4.81ZM20.78,46.92c1.79.41,3.99.55,7.02.55,11.15,0,18.03-5.64,18.03-15.14,0-8.53-5.92-13.62-16.38-13.62-4.27,0-7.16.41-8.67.83v27.39Z"/>
    <path class="cls-1" d="M79.96,4.81c6.74-1.1,16.79-1.93,27.94-1.93,13.76,0,23.4,2.06,30,7.29,5.5,4.4,8.53,10.87,8.53,19.4,0,11.83-8.39,19.96-16.38,22.84v.41c6.47,2.61,10.05,8.81,12.39,17.34,2.89,10.46,5.78,22.57,7.57,26.15h-21.47c-1.51-2.62-3.72-10.18-6.47-21.61-2.48-11.56-6.47-14.72-15-14.86h-6.33v36.47h-20.78V4.81ZM100.74,44.72h8.26c10.46,0,16.65-5.23,16.65-13.35,0-8.53-5.78-12.8-15.41-12.94-5.09,0-7.98.41-9.5.69v25.6Z"/>
    <path class="cls-1" d="M351.2,60.82c-.41-11.15-.83-24.63-.83-38.12h-.41c-2.89,11.83-6.74,25.05-10.32,35.92l-11.29,36.19h-16.38l-9.91-35.92c-3.03-10.87-6.19-24.08-8.39-36.19h-.28c-.55,12.52-.96,26.84-1.65,38.4l-1.65,35.23h-19.4l5.92-92.75h27.94l9.08,30.96c2.89,10.73,5.78,22.29,7.84,33.17h.41c2.61-10.73,5.78-22.98,8.81-33.3l9.91-30.83h27.39l5.09,92.75h-20.5l-1.38-35.51Z"/>
    <path class="cls-1" d="M410.38,72.52l-6.61,23.81h-21.74L410.38,3.57h27.52l28.76,92.75h-22.57l-7.16-23.81h-26.56ZM433.91,56.83l-5.78-19.68c-1.65-5.5-3.3-12.39-4.68-17.89h-.28c-1.38,5.5-2.75,12.52-4.27,17.89l-5.5,19.68h20.5Z"/>
  </g>
</svg>