<?xml version="1.0" encoding="UTF-8"?>
<svg id="Layer_1" xmlns="http://www.w3.org/2000/svg" viewBox="0 0 117.61 101.14">
  <defs>
    <style>
      .cls-1 {
        fill: #3aafa9;
      }
    </style>
  </defs>
  <path class="cls-1" d="M114.58,36.33l-35.34-25.91-20.18,37.68c-1.93,3.61-.57,8.1,3.03,10.03,1.11.6,2.31.88,3.49.88,2.64,0,5.2-1.42,6.54-3.91l6.49-12.12c.94,3.01,1.44,6.17,1.44,9.37,0,17.24-14.03,31.26-31.26,31.26s-31.26-14.03-31.26-31.26c0-14.27,9.61-26.34,22.7-30.07,2.12,1.68,4.8,2.68,7.72,2.68,6.89,0,12.48-5.59,12.48-12.48S54.83,0,47.94,0c-3.96,0-7.49,1.85-9.77,4.73-2.86.63-5.65,1.53-8.37,2.68-5.81,2.46-11.03,5.97-15.5,10.45s-7.99,9.69-10.45,15.5c-2.55,6.02-3.84,12.41-3.84,18.99s1.29,12.97,3.84,18.99c2.46,5.81,5.97,11.03,10.45,15.5,4.48,4.48,9.69,7.99,15.5,10.45,6.02,2.55,12.41,3.84,18.99,3.84s12.97-1.29,18.99-3.84c5.81-2.46,11.03-5.97,15.5-10.45,4.48-4.48,7.99-9.69,10.45-15.5,2.55-6.02,3.84-12.41,3.84-18.99,0-3.74-.43-7.44-1.26-11.03l9.51,6.97c3.3,2.42,7.94,1.71,10.36-1.6,2.42-3.3,1.71-7.94-1.6-10.36Z"/>
</svg>